<svg width="32" height="32" viewBox="0 0 32 32" fill="none" xmlns="http://www.w3.org/2000/svg">
<g clip-path="url(#clip0_20_26)">
<path d="M25.1429 0H6.85714C3.07005 0 0 3.07005 0 6.85714V25.1429C0 28.93 3.07005 32 6.85714 32H25.1429C28.93 32 32 28.93 32 25.1429V6.85714C32 3.07005 28.93 0 25.1429 0Z" fill="url(#paint0_radial_20_26)"/>
<path d="M25.1429 0H6.85714C3.07005 0 0 3.07005 0 6.85714V25.1429C0 28.93 3.07005 32 6.85714 32H25.1429C28.93 32 32 28.93 32 25.1429V6.85714C32 3.07005 28.93 0 25.1429 0Z" fill="url(#paint1_radial_20_26)"/>
<path d="M25.1429 0H6.85714C3.07005 0 0 3.07005 0 6.85714V25.1429C0 28.93 3.07005 32 6.85714 32H25.1429C28.93 32 32 28.93 32 25.1429V6.85714C32 3.07005 28.93 0 25.1429 0Z" fill="url(#paint2_radial_20_26)"/>
<path d="M24 9.71429C24 10.661 23.2324 11.4286 22.2857 11.4286C21.339 11.4286 20.5714 10.661 20.5714 9.71429C20.5714 8.76751 21.339 8 22.2857 8C23.2324 8 24 8.76751 24 9.71429Z" fill="white"/>
<path fill-rule="evenodd" clip-rule="evenodd" d="M16.0001 21.7143C19.1559 21.7143 21.7143 19.1559 21.7143 16.0001C21.7143 12.8442 19.1559 10.2858 16.0001 10.2858C12.8442 10.2858 10.2858 12.8442 10.2858 16.0001C10.2858 19.1559 12.8442 21.7143 16.0001 21.7143ZM16.0001 19.4286C17.8937 19.4286 19.4286 17.8937 19.4286 16.0001C19.4286 14.1065 17.8937 12.5715 16.0001 12.5715C14.1065 12.5715 12.5715 14.1065 12.5715 16.0001C12.5715 17.8937 14.1065 19.4286 16.0001 19.4286Z" fill="white"/>
<path fill-rule="evenodd" clip-rule="evenodd" d="M4.57141 15.5428C4.57141 11.7025 4.57141 9.78227 5.31879 8.31548C5.97621 7.02522 7.02522 5.97621 8.31548 5.31879C9.78227 4.57141 11.7025 4.57141 15.5428 4.57141H16.4571C20.2975 4.57141 22.2177 4.57141 23.6844 5.31879C24.9747 5.97621 26.0238 7.02522 26.6811 8.31548C27.4286 9.78227 27.4286 11.7025 27.4286 15.5428V16.4571C27.4286 20.2975 27.4286 22.2177 26.6811 23.6844C26.0238 24.9747 24.9747 26.0238 23.6844 26.6811C22.2177 27.4286 20.2975 27.4286 16.4571 27.4286H15.5428C11.7025 27.4286 9.78227 27.4286 8.31548 26.6811C7.02522 26.0238 5.97621 24.9747 5.31879 23.6844C4.57141 22.2177 4.57141 20.2975 4.57141 16.4571V15.5428ZM15.5428 6.85713H16.4571C18.4151 6.85713 19.7459 6.85891 20.7747 6.94295C21.7769 7.02483 22.2894 7.17323 22.6468 7.35538C23.507 7.79366 24.2063 8.493 24.6446 9.35313C24.8267 9.71061 24.9752 10.2231 25.057 11.2252C25.141 12.254 25.1428 13.5849 25.1428 15.5428V16.4571C25.1428 18.4151 25.141 19.7459 25.057 20.7747C24.9752 21.7769 24.8267 22.2894 24.6446 22.6468C24.2063 23.507 23.507 24.2063 22.6468 24.6446C22.2894 24.8267 21.7769 24.9752 20.7747 25.057C19.7459 25.141 18.4151 25.1428 16.4571 25.1428H15.5428C13.5849 25.1428 12.254 25.141 11.2252 25.057C10.2231 24.9752 9.71061 24.8267 9.35313 24.6446C8.493 24.2063 7.79366 23.507 7.35538 22.6468C7.17323 22.2894 7.02483 21.7769 6.94295 20.7747C6.85891 19.7459 6.85713 18.4151 6.85713 16.4571V15.5428C6.85713 13.5849 6.85891 12.254 6.94295 11.2252C7.02483 10.2231 7.17323 9.71061 7.35538 9.35313C7.79366 8.493 8.493 7.79366 9.35313 7.35538C9.71061 7.17323 10.2231 7.02483 11.2252 6.94295C12.254 6.85891 13.5849 6.85713 15.5428 6.85713Z" fill="white"/>
</g>
<defs>
<radialGradient id="paint0_radial_20_26" cx="0" cy="0" r="1" gradientUnits="userSpaceOnUse" gradientTransform="translate(11.4286 24) rotate(-55.3758) scale(29.1653)">
<stop stop-color="#B13589"/>
<stop offset="0.79309" stop-color="#C62F94"/>
<stop offset="1" stop-color="#8A3AC8"/>
</radialGradient>
<radialGradient id="paint1_radial_20_26" cx="0" cy="0" r="1" gradientUnits="userSpaceOnUse" gradientTransform="translate(10.2857 33.1429) rotate(-65.1363) scale(25.8219)">
<stop stop-color="#E0E8B7"/>
<stop offset="0.444662" stop-color="#FB8A2E"/>
<stop offset="0.71474" stop-color="#E2425C"/>
<stop offset="1" stop-color="#E2425C" stop-opacity="0"/>
</radialGradient>
<radialGradient id="paint2_radial_20_26" cx="0" cy="0" r="1" gradientUnits="userSpaceOnUse" gradientTransform="translate(-1.71429 1.14286) rotate(-8.1301) scale(44.4467 9.5067)">
<stop offset="0.156701" stop-color="#406ADC"/>
<stop offset="0.467799" stop-color="#6A45BE"/>
<stop offset="1" stop-color="#6A45BE" stop-opacity="0"/>
</radialGradient>
<clipPath id="clip0_20_26">
<rect width="32" height="32" fill="white"/>
</clipPath>
</defs>
</svg>
